<svg xmlns="http://www.w3.org/2000/svg" width="69" height="71" viewBox="0 0 69 71"><metadata><x:xmpmeta xmlns:x="adobe:ns:meta/" x:xmptk="Adobe XMP Core 5.6-c138 79.159824, 2016/09/14-01:09:01        "><rdf:RDF xmlns:rdf="http://www.w3.org/1999/02/22-rdf-syntax-ns#"><rdf:Description rdf:about=""/></rdf:RDF></x:xmpmeta></metadata><defs><style>
      .cls-1, .cls-2 {
        fill: none;
        stroke-width: 2px;
      }

      .cls-1 {
        stroke: #fff;
      }

      .cls-1, .cls-2, .cls-3 {
        fill-rule: evenodd;
      }

      .cls-2 {
        stroke: #f6f7fc;
      }

      .cls-3, .cls-4 {
        fill: #fff;
      }
    </style></defs><path class="cls-1" d="M990.68 352.86l-28.81-55-28.81 55h57.63ZM961.5 285A33.22 33.22 0 1 1 928 318.21 33.36 33.36 0 0 1 961.5 285ZM961.86 347.86a3.57 3.57 0 1 1-3.6 3.57A3.59 3.59 0 0 1 961.86 347.86Z" transform="translate(-927 -284)"/><circle data-name="Ellipse 1 copy 9" class="cls-4" cx="61.52" cy="67.42" r="3.61"/><path data-name="Ellipse 1 copy 11" class="cls-3" d="M933.04 347.86a3.57 3.57 0 1 1-3.6 3.57A3.59 3.59 0 0 1 933.04 347.86Z" transform="translate(-927 -284)"/></svg>